<svg width="37" height="37" viewBox="0 0 37 37" fill="none" xmlns="http://www.w3.org/2000/svg">
<path d="M18.5 0C28.7006 0 37 8.29938 37 18.5C37 28.7006 28.7006 37 18.5 37C8.29939 37 0 28.7006 0 18.5C0 8.29938 8.29939 0 18.5 0ZM18.5 2.84615C9.83773 2.84615 2.84615 9.83773 2.84615 18.5C2.84615 27.1623 9.83773 34.1538 18.5 34.1538C27.1623 34.1538 34.1538 27.1623 34.1538 18.5C34.1538 9.83773 27.1623 2.84615 18.5 2.84615ZM19.5246 9.38377L27.6148 17.4754L28.6394 18.5L27.6148 19.5246L19.5218 27.6162L17.4754 25.6154L23.1677 19.9231H8.53846V17.0769H23.1677L17.4754 11.3846L19.5246 9.38377Z" fill="white"/>
</svg>
