<svg width="37" height="36" viewBox="0 0 37 36" fill="none" xmlns="http://www.w3.org/2000/svg">
<path d="M18.4697 0C8.28579 0 0 8.07508 0 18C0 27.9249 8.28579 36 18.4697 36C28.6536 36 36.9394 27.9249 36.9394 18C36.9394 8.07508 28.6536 0 18.4697 0ZM18.4697 2.76923C27.1178 2.76923 34.0979 9.57185 34.0979 18C34.0979 26.4282 27.1178 33.2308 18.4697 33.2308C9.82162 33.2308 2.84149 26.4282 2.84149 18C2.84149 9.57185 9.82162 2.76923 18.4697 2.76923ZM17.4468 9.13015L9.36982 17.0031L8.34688 18L9.36982 18.9969L17.4496 26.8698L19.4926 24.9231L13.8097 19.3846H28.4149V16.6154H13.8097L19.4926 11.0769L17.4468 9.13015Z" fill="white"/>
</svg>
