<svg width="26" height="26" viewBox="0 0 26 26" fill="none" xmlns="http://www.w3.org/2000/svg">
<path d="M12.9884 21.8909L12.8658 22.031L12.731 21.8909C6.90938 15.8555 3.06096 11.8645 3.06096 7.81757C3.06096 5.0169 4.89938 2.91639 7.35059 2.91639C9.23803 2.91639 11.0764 4.31673 11.726 6.22118H14.0057C14.6552 4.31673 16.4936 2.91639 18.3811 2.91639C20.8323 2.91639 22.6707 5.0169 22.6707 7.81757C22.6707 11.8645 18.8223 15.8555 12.9884 21.8909ZM18.3811 0.115723C16.2485 0.115723 14.2018 1.24999 12.8658 3.02842C11.5299 1.24999 9.48316 0.115723 7.35059 0.115723C3.57572 0.115723 0.609741 3.49053 0.609741 7.81757C0.609741 13.0968 4.77681 17.4239 11.0887 23.9634L12.8658 25.8119L14.643 23.9634C20.9549 17.4239 25.1219 13.0968 25.1219 7.81757C25.1219 3.49053 22.156 0.115723 18.3811 0.115723Z" fill="#FF0000"/>
</svg>
