<svg width="31" height="26" viewBox="0 0 31 26" fill="none" xmlns="http://www.w3.org/2000/svg">
<path d="M5.32086 6.41556L10.1344 8.00333L15.4252 3.61304L7.8323 3.86172C7.75781 3.86548 7.68556 3.8919 7.62301 3.93824L5.2204 5.51645C5.14566 5.56376 5.08507 5.63561 5.04646 5.72269C5.00784 5.80977 4.99298 5.90809 5.0038 6.00492C5.01462 6.10176 5.05062 6.19266 5.10715 6.26586C5.16367 6.33907 5.23812 6.39122 5.32086 6.41556Z" fill="#2F5FEB"/>
<path d="M28.9869 1.49897L23.7129 0.198147C23.2693 0.0881276 22.8102 0.0884145 22.3668 0.198989C21.9234 0.309563 21.5059 0.527836 21.1428 0.838996L5.21194 14.0673L1.38619 13.876C1.16705 13.8675 0.951113 13.9378 0.76886 14.0771C0.586607 14.2164 0.447249 14.4175 0.370464 14.6522C0.293679 14.8868 0.283346 15.1431 0.340924 15.3849C0.398502 15.6266 0.521083 15.8415 0.691356 15.9994L4.41665 19.3758C4.47798 19.4323 4.55098 19.4699 4.62867 19.485C4.70635 19.5001 4.78612 19.4921 4.86034 19.4619C5.92352 18.9932 9.88322 16.5924 14.5629 13.656L15.5005 24.6652C15.5084 24.7605 15.539 24.8516 15.5889 24.9285C15.6389 25.0055 15.7062 25.0654 15.7837 25.1018C15.8613 25.1382 15.946 25.1498 16.0289 25.1352C16.1117 25.1206 16.1895 25.0805 16.2539 25.0191L18.3468 23.0296C18.4613 22.9198 18.5384 22.7674 18.5644 22.5992L20.5485 9.8874C23.897 7.76399 27.0949 5.70753 29.3469 4.25367C29.5805 4.10838 29.7695 3.88452 29.8881 3.61242C30.0067 3.34032 30.0493 3.03314 30.01 2.73249C29.9707 2.43184 29.8515 2.15225 29.6685 1.93161C29.4855 1.71097 29.2475 1.55994 28.9869 1.49897Z" fill="#2F5FEB"/>
</svg>
