<svg width="32" height="30" viewBox="0 0 32 30" fill="none" xmlns="http://www.w3.org/2000/svg">
<path d="M17.239 8.98947C17.239 5.12454 13.621 1.98779 9.15 1.98779C4.67897 1.98779 1.06097 5.12454 1.06097 8.98947H4.00244L5.47317 7.58913L6.9439 8.98947H12.8268M17.239 7.78518C18.7283 6.73682 20.5345 6.17667 22.3866 6.1888C26.8576 6.1888 30.4756 9.32555 30.4756 13.1905H26.0634L24.5927 11.7901L23.122 13.1905H18.7098" stroke="#1C955F" stroke-width="2" stroke-linecap="round" stroke-linejoin="round"/>
<path d="M6.7821 11.384C3.62002 14.3948 3.39941 19.0439 6.26734 21.7885L12.5032 15.8371L13.5328 14.8569L14.577 13.8626L17.6949 10.8939C14.827 8.14927 9.94417 8.37332 6.7821 11.384Z" stroke="#1C955F" stroke-width="2" stroke-linecap="round" stroke-linejoin="round"/>
<path d="M14.2975 19.4919C15.0329 22.9927 14.0475 25.7934 12.8268 28.5941H18.7097C21.6512 20.8922 17.9743 11.7901 17.239 8.98938" stroke="#1C955F" stroke-width="2" stroke-linecap="round" stroke-linejoin="round"/>
</svg>
