<svg width="99" height="88" viewBox="0 0 99 88" fill="none" xmlns="http://www.w3.org/2000/svg">
<path d="M73.0714 0C87.3934 0 99 11.8919 99 28.5405C99 61.8378 63.6429 80.8649 51.8571 88C42.537 82.3585 18.4659 69.2727 8.811 47.5723L0 47.5676V38.0541H5.70429C5.04511 34.9266 4.71329 31.7379 4.71429 28.5405C4.71429 11.8919 16.5 0 30.6429 0C39.4114 0 47.1429 4.75676 51.8571 9.51351C56.5714 4.75676 64.3029 0 73.0714 0ZM73.0714 9.51351C67.9989 9.51351 62.5114 12.2249 58.5231 16.2396L51.8571 22.9656L45.1911 16.2396C41.2029 12.2249 35.7154 9.51351 30.6429 9.51351C21.4971 9.51351 14.1429 17.3955 14.1429 28.5405C14.1429 31.8005 14.5624 34.9717 15.4016 38.0541H25.6174L35.3571 21.6718L49.5 45.4556L53.9031 38.0541H75.4286V47.5676H59.2397L49.5 63.9498L35.3571 40.1661L30.954 47.5676H19.3663C23.0906 54.1034 28.7241 60.2586 36.0407 66.1332C39.5529 68.9539 43.3007 71.5844 47.454 74.2197C48.8636 75.1187 50.259 75.9797 51.8571 76.9405C53.4553 75.9797 54.8507 75.1187 56.2603 74.2244C60.2068 71.7397 64.0154 69.0386 67.6689 66.1332C81.7221 54.8597 89.5714 42.5397 89.5714 28.5405C89.5714 17.3146 82.3256 9.51351 73.0714 9.51351Z" fill="#1C955F"/>
</svg>
